<?xml version="1.0" encoding="UTF-8"?>
<!DOCTYPE svg PUBLIC "-//W3C//DTD SVG 1.1//EN" "http://www.w3.org/Graphics/SVG/1.1/DTD/svg11.dtd">
<svg xmlns="http://www.w3.org/2000/svg" version="1.1" width="500px" height="500px" style="shape-rendering:geometricPrecision; text-rendering:geometricPrecision; image-rendering:optimizeQuality; fill-rule:evenodd; clip-rule:evenodd" xmlns:xlink="http://www.w3.org/1999/xlink">
<g><path style="opacity:1" fill="#158c84" d="M 375.5,51.5 C 294.512,50.5227 213.512,50.1894 132.5,50.5C 133.263,49.7321 134.263,49.2321 135.5,49C 214.167,48.3333 292.833,48.3333 371.5,49C 373.066,49.6082 374.4,50.4415 375.5,51.5 Z"/></g>
<g><path style="opacity:1" fill="#139b6f" d="M 132.5,50.5 C 213.512,50.1894 294.512,50.5227 375.5,51.5C 375.833,51.5 376.167,51.5 376.5,51.5C 376.685,53.1958 377.519,54.5291 379,55.5C 379.494,57.1341 379.66,58.8008 379.5,60.5C 380.675,60.281 381.675,60.6143 382.5,61.5C 381.562,65.9827 379.562,66.9827 376.5,64.5C 375.272,63.6935 374.272,62.6935 373.5,61.5C 372.878,59.665 371.544,58.4983 369.5,58C 291.833,57.3333 214.167,57.3333 136.5,58C 133.507,59.1585 131.84,61.3252 131.5,64.5C 130.833,64.8333 130.167,65.1667 129.5,65.5C 127.436,64.942 125.77,63.7754 124.5,62C 125.222,59.3226 126.222,56.8226 127.5,54.5C 128.585,52.4131 130.251,51.0798 132.5,50.5 Z"/></g>
<g><path style="opacity:1" fill="#103223" d="M 373.5,61.5 C 371.745,60.9278 370.078,60.0945 368.5,59C 291.5,58.3333 214.5,58.3333 137.5,59C 134.977,60.3597 132.977,62.193 131.5,64.5C 131.84,61.3252 133.507,59.1585 136.5,58C 214.167,57.3333 291.833,57.3333 369.5,58C 371.544,58.4983 372.878,59.665 373.5,61.5 Z"/></g>
<g><path style="opacity:1" fill="#292524" d="M 373.5,61.5 C 374.272,62.6935 375.272,63.6935 376.5,64.5C 413.057,128.608 449.89,192.608 487,256.5C 488.457,259.366 488.79,262.366 488,265.5C 450.614,331.266 412.947,396.932 375,462.5C 373.188,464.3 371.355,465.967 369.5,467.5C 291.499,467.667 213.499,467.5 135.5,467C 134.069,466.535 132.903,465.701 132,464.5C 131.856,461.558 130.689,459.224 128.5,457.5C 92.2487,393.994 55.7487,330.661 19,267.5C 16.9142,263.333 17.2475,259.333 20,255.5C 56.7624,192.307 93.2624,128.974 129.5,65.5C 130.167,65.1667 130.833,64.8333 131.5,64.5C 132.977,62.193 134.977,60.3597 137.5,59C 214.5,58.3333 291.5,58.3333 368.5,59C 370.078,60.0945 371.745,60.9278 373.5,61.5 Z"/></g>
<g><path style="opacity:1" fill="#fcfcfc" d="M 236.5,106.5 C 253.064,105.598 269.397,107.098 285.5,111C 299.63,115.14 310.13,123.64 317,136.5C 319.529,142.421 321.863,148.421 324,154.5C 336.865,199.594 350.032,244.594 363.5,289.5C 376.817,290.499 390.15,290.833 403.5,290.5C 403.5,295.833 403.5,301.167 403.5,306.5C 391.833,306.5 380.167,306.5 368.5,306.5C 373.552,326.372 379.386,346.038 386,365.5C 387.863,367.949 390.363,368.949 393.5,368.5C 398.801,368.258 403.801,366.925 408.5,364.5C 410.669,365.652 412.003,367.486 412.5,370C 392.685,385.204 370.352,390.871 345.5,387C 334.558,384.129 326.725,377.629 322,367.5C 316.052,347.191 309.885,327.025 303.5,307C 280.16,306.167 256.826,306.334 233.5,307.5C 225.869,333.429 214.035,357.096 198,378.5C 174.848,401.83 147.348,408.663 115.5,399C 110.508,396.839 105.841,394.172 101.5,391C 97.1952,385.738 96.3619,379.905 99,373.5C 101.639,364.939 107.139,361.772 115.5,364C 127.457,389.91 145.79,395.577 170.5,381C 178.121,374.386 184.621,366.886 190,358.5C 199.119,341.935 206.286,324.601 211.5,306.5C 196.833,306.5 182.167,306.5 167.5,306.5C 167.5,301.167 167.5,295.833 167.5,290.5C 184.167,290.5 200.833,290.5 217.5,290.5C 230.966,240.969 243.966,191.302 256.5,141.5C 253.267,131.098 246.267,125.264 235.5,124C 216.74,122.366 199.74,127.033 184.5,138C 177.211,144.09 172.045,151.59 169,160.5C 166.694,169.71 168.861,177.544 175.5,184C 178.702,185.483 182.036,185.817 185.5,185C 190.335,183.086 194.669,180.419 198.5,177C 207.271,174.637 213.438,177.803 217,186.5C 219.966,206.747 211.466,218.914 191.5,223C 168.029,224.859 153.529,214.359 148,191.5C 145.102,163.798 155.268,142.298 178.5,127C 196.324,115.671 215.657,108.838 236.5,106.5 Z"/></g>
<g><path style="opacity:0.518" fill="#077577" d="M 68.5,155.5 C 67.9695,157.924 67.1362,160.257 66,162.5C 60.4708,170.022 55.8041,178.022 52,186.5C 50.9609,187.71 49.7942,188.71 48.5,189.5C 54.6658,177.83 61.3324,166.496 68.5,155.5 Z"/></g>
<g><path style="opacity:1" fill="#2a2625" d="M 267.5,181.5 C 278.527,217.594 289.193,253.928 299.5,290.5C 279.156,290.833 258.822,290.5 238.5,289.5C 249.106,253.744 258.772,217.744 267.5,181.5 Z"/></g>
<g><path style="opacity:1" fill="#159570" d="M 127.5,54.5 C 126.222,56.8226 125.222,59.3226 124.5,62C 125.77,63.7754 127.436,64.942 129.5,65.5C 93.2624,128.974 56.7624,192.307 20,255.5C 17.2475,259.333 16.9142,263.333 19,267.5C 55.7487,330.661 92.2487,393.994 128.5,457.5C 127.06,456.637 125.726,456.637 124.5,457.5C 123.614,456.675 123.281,455.675 123.5,454.5C 122.5,454.5 121.5,454.5 120.5,454.5C 120.928,457.564 121.594,460.564 122.5,463.5C 85.1076,399.727 47.9409,335.727 11,271.5C 7.66667,265.5 7.66667,259.5 11,253.5C 23.2743,231.939 35.7743,210.606 48.5,189.5C 49.7942,188.71 50.9609,187.71 52,186.5C 55.8041,178.022 60.4708,170.022 66,162.5C 67.1362,160.257 67.9695,157.924 68.5,155.5C 86.9778,121.05 106.644,87.3832 127.5,54.5 Z"/></g>
<g><path style="opacity:1" fill="#159671" d="M 376.5,51.5 C 379.458,54.0595 381.958,57.0595 384,60.5C 421.919,126.004 459.586,191.67 497,257.5C 497.791,261.926 497.457,266.259 496,270.5C 457.667,336.833 419.333,403.167 381,469.5C 378.536,472.647 375.37,474.647 371.5,475.5C 292.833,475.5 214.167,475.5 135.5,475.5C 129.677,473.683 125.343,470.016 122.5,464.5C 124.384,464.712 125.717,465.712 126.5,467.5C 127.451,466.674 128.451,466.508 129.5,467C 128.663,468.011 128.33,469.178 128.5,470.5C 131.245,470.373 133.245,471.54 134.5,474C 212.5,474.667 290.5,474.667 368.5,474C 372.403,473.588 374.07,471.421 373.5,467.5C 372.167,467.5 370.833,467.5 369.5,467.5C 371.355,465.967 373.188,464.3 375,462.5C 412.947,396.932 450.614,331.266 488,265.5C 488.79,262.366 488.457,259.366 487,256.5C 449.89,192.608 413.057,128.608 376.5,64.5C 379.562,66.9827 381.562,65.9827 382.5,61.5C 381.675,60.6143 380.675,60.281 379.5,60.5C 379.66,58.8008 379.494,57.1341 379,55.5C 377.519,54.5291 376.685,53.1958 376.5,51.5 Z"/></g>
<g><path style="opacity:1" fill="#13956a" d="M 128.5,457.5 C 130.689,459.224 131.856,461.558 132,464.5C 132.903,465.701 134.069,466.535 135.5,467C 213.499,467.5 291.499,467.667 369.5,467.5C 370.833,467.5 372.167,467.5 373.5,467.5C 374.07,471.421 372.403,473.588 368.5,474C 290.5,474.667 212.5,474.667 134.5,474C 133.245,471.54 131.245,470.373 128.5,470.5C 128.33,469.178 128.663,468.011 129.5,467C 128.451,466.508 127.451,466.674 126.5,467.5C 125.717,465.712 124.384,464.712 122.5,464.5C 122.5,464.167 122.5,463.833 122.5,463.5C 121.594,460.564 120.928,457.564 120.5,454.5C 121.5,454.5 122.5,454.5 123.5,454.5C 123.281,455.675 123.614,456.675 124.5,457.5C 125.726,456.637 127.06,456.637 128.5,457.5 Z"/></g>
<g><path style="opacity:0.475" fill="#107887" d="M 135.5,475.5 C 214.167,475.5 292.833,475.5 371.5,475.5C 359.346,476.566 347.012,477.233 334.5,477.5C 282.668,476.214 230.835,476.214 179,477.5C 164.311,477.522 149.811,476.855 135.5,475.5 Z"/></g>
</svg>
