<?xml version="1.0" standalone="no"?>
<!DOCTYPE svg PUBLIC "-//W3C//DTD SVG 20010904//EN"
 "http://www.w3.org/TR/2001/REC-SVG-20010904/DTD/svg10.dtd">
<svg version="1.0" xmlns="http://www.w3.org/2000/svg"
 width="500.000000pt" height="500.000000pt" viewBox="0 0 500.000000 500.000000"
 preserveAspectRatio="xMidYMid meet">

<g transform="translate(0.000000,500.000000) scale(0.100000,-0.100000)"
fill="#000000" stroke="none">
<path d="M1336 4485 c-14 -8 -24 -9 -20 -4 4 7 -1 7 -15 -1 -12 -6 -19 -15
-16 -20 3 -6 0 -7 -8 -5 -17 7 -51 -30 -41 -46 4 -7 3 -10 -4 -6 -9 6 -85
-113 -82 -129 1 -4 -3 -10 -8 -13 -15 -9 -73 -117 -67 -124 3 -4 2 -5 -2 -2
-3 3 -17 -13 -30 -36 -26 -46 -28 -53 -11 -43 7 5 8 3 4 -5 -5 -7 -11 -10 -14
-7 -9 9 -43 -54 -36 -66 5 -7 2 -8 -6 -3 -10 6 -12 4 -7 -9 4 -9 3 -14 -2 -11
-10 5 -68 -93 -63 -107 1 -4 -2 -8 -7 -8 -14 0 -102 -160 -95 -173 4 -7 4 -9
-1 -5 -10 10 -21 -8 -271 -445 -19 -33 -31 -64 -27 -70 3 -5 1 -7 -5 -4 -6 4
-19 -11 -32 -35 -11 -24 -29 -54 -38 -68 -13 -19 -14 -22 -2 -15 8 4 2 -4 -13
-19 -17 -16 -27 -33 -23 -42 4 -10 2 -13 -6 -8 -8 5 -9 2 -5 -10 4 -10 3 -15
-3 -11 -6 3 -13 -2 -17 -12 -4 -10 -19 -38 -35 -62 -30 -48 -35 -67 -16 -55 7
4 8 3 4 -5 -4 -6 -11 -9 -16 -6 -9 6 -127 -194 -122 -207 1 -5 -1 -8 -6 -8 -4
0 -19 -21 -32 -47 -14 -27 -27 -50 -31 -53 -15 -14 -39 -82 -39 -113 0 -43 9
-69 21 -61 5 3 7 -1 4 -8 -3 -7 19 -53 49 -103 40 -69 57 -89 72 -87 11 2 15
0 8 -5 -6 -4 -10 -15 -9 -23 4 -27 41 -80 50 -72 5 4 5 1 1 -6 -4 -7 -2 -20 5
-28 6 -8 25 -38 40 -67 15 -29 33 -51 38 -50 6 2 8 -3 5 -10 -2 -7 16 -45 41
-86 25 -40 45 -77 45 -82 0 -5 7 -12 15 -15 8 -4 13 -9 10 -13 -5 -9 72 -143
88 -153 7 -4 8 -8 3 -8 -11 0 14 -30 26 -30 5 0 6 5 2 12 -5 7 -3 8 5 3 8 -5
9 -11 3 -17 -11 -11 -4 -48 9 -48 5 0 8 -3 7 -7 -3 -15 14 -43 23 -37 5 3 6
-2 3 -10 -3 -9 -2 -16 4 -16 5 0 13 -11 16 -25 4 -16 11 -23 18 -19 7 5 8 3 3
-6 -5 -8 -1 -18 10 -27 11 -7 15 -13 11 -13 -4 0 3 -18 15 -40 12 -21 26 -37
30 -34 5 3 6 -1 4 -8 -3 -8 1 -22 10 -33 12 -16 16 -17 23 -7 7 11 10 10 15
-3 4 -9 3 -13 -2 -10 -5 3 -12 2 -15 -3 -7 -11 11 -37 25 -37 7 0 14 -7 16
-15 4 -13 3 -13 -6 0 -14 20 -14 7 1 -25 6 -14 15 -25 20 -25 4 0 8 -5 8 -10
0 -9 29 -63 70 -130 5 -8 57 -99 116 -202 62 -109 111 -185 117 -181 6 3 7 1
3 -6 -7 -11 93 -195 102 -187 2 2 14 -7 28 -21 16 -16 32 -23 45 -20 10 3 16
1 13 -4 -3 -6 461 -9 1165 -9 806 0 1171 4 1171 11 0 5 5 7 10 4 19 -12 105
58 94 77 -3 4 -1 8 3 8 14 0 45 59 37 72 -4 6 -3 8 3 5 12 -8 75 101 66 115
-3 6 -2 8 4 5 12 -8 75 101 66 115 -3 6 -2 8 4 5 6 -4 22 15 37 42 44 82 51
95 74 131 11 19 21 39 21 44 -1 5 3 12 8 15 15 11 83 132 70 126 -6 -4 -4 0 6
8 10 8 19 24 20 35 0 11 4 19 8 16 11 -6 60 87 52 100 -3 6 -2 8 2 3 9 -7 57
68 58 90 0 7 3 10 6 8 4 -2 14 10 24 26 10 18 12 28 4 24 -6 -4 -4 0 7 9 11 9
15 20 10 28 -4 7 -4 10 1 6 11 -10 47 50 39 64 -4 7 -2 8 4 4 11 -6 16 6 13
27 0 4 3 7 9 7 5 0 14 9 20 21 9 15 8 24 -2 37 -11 15 -11 16 4 4 14 -11 19
-8 38 27 13 22 22 43 21 47 -2 4 2 10 7 13 5 3 21 26 35 51 61 104 59 100 45
118 -11 15 -11 15 3 4 15 -11 23 -2 68 79 28 50 51 96 51 100 0 5 4 9 9 9 5 0
14 12 20 28 6 15 25 49 41 75 17 27 27 54 24 60 -4 7 -4 9 1 5 11 -11 47 50
39 65 -4 7 -3 9 1 4 15 -13 74 105 75 148 0 45 -29 111 -47 108 -7 -2 -10 4
-7 12 7 18 -26 76 -39 68 -6 -3 -7 -1 -3 6 6 10 -26 76 -44 91 -3 3 -12 20
-19 38 -8 18 -18 35 -24 39 -6 4 -7 1 -2 -7 5 -9 4 -11 -4 -6 -6 4 -9 11 -6
16 8 13 -24 72 -35 65 -6 -3 -8 0 -5 7 3 7 -11 38 -30 68 -19 30 -41 69 -50
85 -8 17 -26 48 -39 70 -14 22 -35 59 -46 82 -13 24 -27 40 -33 36 -6 -4 -7
-1 -2 6 4 7 -2 22 -16 37 -12 13 -19 24 -15 24 3 0 -1 14 -9 31 -11 21 -21 29
-32 25 -12 -5 -13 -3 -5 7 17 20 -19 72 -37 54 -11 -10 -11 -8 -3 9 9 16 7 26
-5 45 -9 13 -21 27 -26 30 -5 3 -8 10 -7 15 0 5 -9 26 -20 47 -19 33 -24 36
-38 25 -15 -12 -16 -11 -4 4 12 14 11 22 -4 47 -10 16 -21 28 -26 25 -4 -3 -5
1 -3 9 3 7 -6 30 -20 51 -14 20 -25 39 -25 41 0 10 -115 202 -129 215 -9 8
-18 24 -19 35 -2 11 -7 22 -12 25 -4 3 -10 15 -14 28 -4 12 -12 19 -18 16 -6
-4 -8 -2 -4 4 8 13 -30 78 -50 86 -8 3 -12 10 -9 16 8 13 -39 92 -50 83 -4 -5
-5 -3 -2 4 4 6 -12 44 -35 83 -24 40 -55 93 -69 119 -15 25 -32 45 -38 43 -6
-1 -11 5 -11 13 0 19 -57 48 -81 42 -11 -3 -19 -1 -19 4 0 5 -219 9 -529 9
-414 0 -530 -3 -534 -12 -4 -10 -6 -10 -6 0 -1 10 -123 12 -596 12 -351 0
-594 -4 -590 -10 3 -5 0 -12 -6 -16 -7 -4 -9 -3 -5 4 11 18 -9 22 -38 7z
m1314 -35 c749 0 1007 3 1017 12 8 6 13 7 11 2 -1 -5 13 -25 33 -44 19 -19 61
-81 93 -138 43 -76 61 -100 68 -90 8 10 9 10 5 -2 -6 -21 11 -63 22 -55 5 3
13 0 17 -6 4 -8 3 -9 -4 -5 -7 4 -12 4 -12 0 0 -20 207 -364 220 -365 9 0 10
-3 4 -5 -13 -5 104 -223 119 -224 5 0 6 4 2 9 -3 5 0 13 7 17 7 4 10 4 6 -1
-4 -4 -2 -15 5 -23 9 -13 9 -14 0 -8 -20 11 -16 -18 6 -45 10 -13 21 -34 25
-47 4 -12 12 -19 18 -16 6 4 8 3 5 -3 -3 -5 3 -25 15 -44 12 -19 35 -59 51
-89 16 -30 35 -62 41 -70 7 -8 21 -32 31 -52 10 -20 22 -35 26 -32 4 2 11 -1
15 -7 5 -8 3 -9 -6 -4 -8 5 -11 3 -8 -6 3 -8 11 -13 17 -11 7 1 10 -2 6 -8 -6
-10 40 -99 57 -111 6 -3 10 -10 10 -15 0 -16 105 -194 111 -189 4 3 5 2 2 -1
-7 -10 37 -84 46 -78 5 3 6 -2 3 -10 -3 -8 3 -23 13 -34 10 -10 19 -24 21 -31
4 -18 92 -172 110 -193 8 -10 13 -18 10 -18 -3 0 -2 -16 2 -35 4 -19 4 -35 0
-35 -4 0 -10 -8 -13 -18 -2 -9 -8 -26 -13 -36 -6 -15 -4 -17 7 -11 8 5 11 5 6
-1 -5 -5 -13 -9 -18 -9 -10 0 -23 -20 -56 -85 -10 -19 -21 -37 -24 -40 -14
-12 -29 -51 -24 -60 4 -6 2 -9 -4 -8 -7 2 -30 -31 -53 -72 -22 -41 -51 -90
-64 -109 -22 -32 -24 -58 -3 -46 5 4 6 -2 2 -11 -4 -11 -8 -13 -11 -6 -2 7 -8
12 -13 12 -11 0 -43 -60 -32 -60 5 0 3 -4 -3 -8 -24 -17 -43 -56 -33 -68 7 -9
5 -11 -8 -10 -11 0 -18 -6 -18 -17 0 -10 -5 -21 -10 -25 -22 -15 -77 -113 -71
-127 3 -8 0 -17 -6 -21 -7 -4 -8 -3 -4 4 4 7 5 12 2 12 -12 0 -76 -122 -70
-133 4 -7 4 -9 -1 -5 -5 5 -25 -20 -46 -55 -27 -45 -35 -65 -27 -75 8 -10 7
-11 -7 -5 -14 5 -17 3 -12 -10 4 -10 2 -16 -5 -14 -6 1 -13 -4 -16 -12 -3 -9
0 -11 9 -6 8 5 11 4 6 -1 -5 -5 -11 -8 -14 -6 -10 6 -93 -142 -88 -156 3 -7 1
-10 -5 -7 -5 3 -14 -4 -20 -15 -9 -16 -8 -25 2 -38 11 -15 11 -15 -2 -5 -13
10 -20 5 -43 -33 -15 -25 -22 -42 -15 -39 7 4 6 1 -3 -7 -9 -7 -15 -21 -13
-31 1 -9 -1 -15 -6 -12 -11 7 -33 -22 -26 -34 4 -5 -1 -14 -10 -19 -9 -5 -14
-15 -10 -21 4 -6 12 -8 18 -5 7 4 8 2 4 -5 -6 -9 -11 -9 -21 -1 -9 8 -26 -14
-73 -94 -38 -66 -56 -107 -49 -110 7 -2 6 -5 -3 -5 -9 -1 -46 -55 -86 -124
-55 -95 -78 -126 -105 -140 -22 -11 -33 -23 -31 -35 2 -16 2 -16 -8 1 -10 16
-76 17 -1156 17 -1043 0 -1148 1 -1182 17 -20 9 -44 16 -52 15 -10 -1 -11 1
-3 4 10 4 9 12 -3 35 -8 16 -19 27 -24 24 -6 -4 -7 1 -3 11 4 10 2 15 -3 11
-6 -3 -10 2 -11 11 -2 25 -53 112 -66 112 -5 0 -8 3 -4 6 8 9 -21 64 -33 64
-6 0 -9 3 -9 8 3 20 -2 32 -13 26 -6 -4 -8 -3 -4 4 6 11 -47 111 -66 123 -5 3
-8 8 -6 10 2 3 -81 154 -122 219 -5 8 -39 68 -75 133 -40 69 -71 114 -77 111
-6 -4 -8 -2 -5 4 9 14 -3 43 -14 36 -5 -3 -6 1 -4 8 3 8 -5 25 -17 38 -12 13
-23 29 -23 35 0 23 -118 215 -128 208 -5 -3 -7 -1 -4 5 10 16 -3 42 -22 43 -9
0 -11 3 -4 5 13 6 -100 209 -116 209 -5 0 -13 4 -18 9 -5 5 -3 6 5 2 16 -10
16 9 -1 26 -7 7 -14 18 -15 23 -1 6 -8 10 -14 10 -7 0 -12 9 -10 19 2 10 -5
24 -15 32 -10 7 -15 14 -10 14 4 0 0 14 -8 30 -9 18 -21 28 -27 24 -6 -4 -8
-3 -5 4 7 11 -47 119 -78 155 -11 12 -18 22 -16 22 2 0 -3 12 -10 27 -6 15
-15 25 -20 23 -4 -3 -11 0 -15 6 -5 8 -3 9 6 4 8 -5 11 -3 8 6 -3 8 -10 13
-16 12 -6 -2 -9 3 -6 11 3 7 -1 20 -9 28 -30 29 -16 105 35 192 26 44 44 84
41 89 -3 6 -1 7 4 4 17 -10 25 24 11 42 -11 14 -11 14 3 4 13 -10 20 -5 45 38
16 28 27 53 26 56 -2 3 0 9 5 12 21 14 53 80 47 97 -4 15 -4 16 4 5 8 -11 13
-8 25 15 8 16 12 35 10 42 -3 7 -1 11 4 10 4 -2 9 1 10 6 1 5 5 12 10 15 4 3
15 15 23 25 14 18 13 19 -3 13 -11 -4 -16 -3 -12 3 3 6 13 10 20 10 8 0 17 11
21 25 3 14 11 25 16 25 6 0 7 7 4 16 -3 8 -2 12 4 9 6 -3 10 -4 10 -1 0 2 3
12 7 22 5 13 3 15 -7 9 -9 -5 -11 -4 -6 4 4 6 11 9 16 6 5 -3 25 23 44 58 38
68 43 83 24 71 -7 -4 -8 -3 -4 5 4 6 11 9 16 6 12 -8 33 33 24 47 -4 6 -3 8 4
5 6 -4 23 17 41 48 34 61 39 80 15 71 -9 -3 -12 -2 -9 5 4 6 13 8 21 5 15 -6
39 27 100 138 19 35 31 66 27 71 -5 4 -3 6 2 2 6 -3 21 13 34 35 13 23 17 37
9 33 -7 -4 -3 2 9 14 29 28 54 76 45 86 -4 5 -2 5 4 2 6 -3 17 9 24 28 8 19
17 35 20 35 7 0 37 59 38 74 0 5 4 12 10 15 16 11 62 97 55 104 -3 4 -1 7 5 7
12 0 75 106 75 127 0 7 3 11 5 8 9 -9 122 196 115 208 -3 7 -3 9 2 5 4 -4 21
4 37 17 17 15 43 25 61 25 18 1 87 1 155 1 115 0 123 1 110 17 -11 15 -10 15
8 0 19 -17 84 -18 1024 -18z m-980 24 c0 -8 -19 -13 -24 -6 -3 5 1 9 9 9 8 0
15 -2 15 -3z m2187 -236 c2 -17 0 -19 -7 -8 -5 8 -6 18 -4 22 8 12 10 10 11
-14z m-2917 -358 c-6 -11 -13 -20 -16 -20 -2 0 0 9 6 20 6 11 13 20 16 20 2 0
0 -9 -6 -20z m-400 -714 c0 -3 -4 -8 -10 -11 -5 -3 -10 -1 -10 4 0 6 5 11 10
11 6 0 10 -2 10 -4z m3995 -95 c3 -5 2 -12 -3 -15 -5 -3 -9 1 -9 9 0 17 3 19
12 6z m-4260 -350 c3 -5 2 -12 -3 -15 -5 -3 -9 1 -9 9 0 17 3 19 12 6z m4589
-223 c-9 -14 -23 2 -17 18 4 12 8 13 14 3 4 -7 5 -17 3 -21z m-167 -559 c-6
-10 -16 -15 -21 -12 -6 4 -5 8 2 11 7 2 10 7 8 11 -3 4 1 8 8 8 11 0 12 -4 3
-18z m-197 -345 c0 -8 -19 -13 -24 -6 -3 5 1 9 9 9 8 0 15 -2 15 -3z m-3943
-69 c0 -8 -4 -12 -9 -9 -5 3 -6 10 -3 15 9 13 12 11 12 -6z m498 -854 c3 -5 2
-12 -3 -15 -5 -3 -9 1 -9 9 0 17 3 19 12 6z m2695 -355 c0 -2 -8 -10 -17 -17
-16 -13 -17 -12 -4 4 13 16 21 21 21 13z"/>
<path d="M2344 3920 c-391 -34 -729 -229 -849 -491 -62 -136 -72 -311 -26
-431 64 -165 250 -264 426 -228 158 32 248 132 248 274 0 108 -48 180 -126
193 -26 4 -43 -3 -86 -32 -109 -75 -169 -84 -226 -34 -43 38 -59 93 -52 176 8
86 40 147 116 224 106 107 266 173 445 186 154 11 242 -25 290 -118 l28 -54
-46 -195 c-62 -260 -149 -589 -253 -960 -47 -168 -88 -313 -90 -322 -5 -17
-25 -18 -249 -18 l-244 0 0 -80 0 -80 219 -2 220 -3 -48 -130 c-165 -451 -353
-673 -581 -683 -42 -2 -94 1 -116 7 -57 15 -124 78 -180 167 -54 84 -74 95
-128 69 -44 -21 -73 -67 -88 -137 -10 -45 -9 -58 6 -88 32 -66 125 -116 269
-147 103 -21 309 -13 398 16 192 61 343 200 482 443 39 67 129 277 168 391
l33 97 351 0 352 0 82 -287 c91 -313 118 -380 181 -437 141 -127 419 -127 675
-1 147 73 151 76 135 115 -14 35 -16 35 -65 15 -54 -23 -125 -34 -151 -24 -13
4 -30 19 -38 31 -15 23 -176 550 -176 576 0 9 42 12 175 12 l175 0 0 80 0 80
-201 2 -202 3 -201 695 c-112 382 -215 727 -230 766 -94 247 -273 354 -615
367 -64 3 -157 1 -207 -3z m461 -1283 c85 -295 155 -539 155 -542 0 -3 -137
-5 -304 -5 l-303 0 34 118 c48 165 143 520 204 765 28 114 53 206 55 204 2 -2
74 -245 159 -540z"/>
</g>
</svg>
